<svg id="Layer_1" data-name="Layer 1" xmlns="http://www.w3.org/2000/svg" viewBox="0 0 481.38 480.95"><defs><style>.cls-1{fill:#f1593f;}</style></defs><path class="cls-1" d="M169.87,306.26a92.79,92.79,0,0,1-38.38,28C78.4,354.92,18,319.62,10.28,263.43c-7-50.76,26.88-96.47,77.31-103,31.25-4,58,6.25,79.25,29.74,2.53,2.8,4.24,3,7.45,1.3q66.69-35.31,133.56-70.3c3.43-1.8,4.14-3.49,3.44-7.32-8.93-48.6,27.2-97.47,76.41-103.64,48.61-6.09,91.24,24.2,101.24,72,10.56,50.39-26.33,101.22-77.4,106.88-29.77,3.29-54.94-6-76.07-26.93-.92-.92-1.89-1.8-3-2.88-16.82,8.87-33.53,17.7-50.26,26.51-29.82,15.69-59.62,31.43-89.53,47-3.21,1.67-4,3.42-3.8,6.89.38,7.11-.08,14.25.18,21.36.07,1.72,1.16,4.22,2.53,4.95Q255.79,300,320.19,333.78a3.56,3.56,0,0,0,.9.3c6.78-5.84,12.88-12.06,19.89-17,56.8-39.82,136-6.92,148.24,61.4,9.52,53.29-27.8,104.16-81.51,111.09-51.62,6.66-99.55-29.18-106.51-80.35-1.34-9.88.25-20.15.21-30.24,0-1.72-1-4.32-2.28-5q-63.58-33.74-127.35-67.12A14.47,14.47,0,0,0,169.87,306.26Zm225.35,39.06a49.61,49.61,0,0,0-49.74,49.77c-.05,27.77,22.45,50.35,50,50.18a50.41,50.41,0,0,0,50-49.92C445.58,367.89,422.89,345.27,395.22,345.32ZM144.29,250a44.81,44.81,0,0,0-44.87-45.1C75,204.84,54.62,225,54.36,249.51s20.15,45.26,44.82,45.35A44.81,44.81,0,0,0,144.29,250ZM399.7,144.39a45.09,45.09,0,0,0,45.73-44.84c.13-24.32-20-44.57-44.69-45C376.33,54,355.82,74.09,355.5,98.74A44.58,44.58,0,0,0,399.7,144.39Z" transform="translate(-9.37 -9.44)"/></svg>